<svg xmlns="http://www.w3.org/2000/svg" version="1.1" xmlns:xlink="http://www.w3.org/1999/xlink" viewBox="0 0 166 46"><g fill-rule="evenodd" fill="none"><g fill="#000" transform="translate(-26 -17)"><g transform="translate(26 17)"><g><g><g><path d="m5.51 8.25l-1.58 10.6c-0.07 0.4 0.38 0.8 0.79 0.6l13.3-6.1c0.4-0.2 0.4-0.8-0.1-1l-11.6-4.49c-0.36-0.13-0.73 0.09-0.79 0.44"/><path d="m29.4 33l-4-17.7c0-0.3-0.5-0.5-0.8-0.3l-14.5 7.6c-0.39 0.2-0.4 0.8 0 1l18.5 10c0.4 0.3 0.9-0.1 0.8-0.6"/><path d="m0.693 46l23.7-5.2c0.5-0.1 0.6-0.8 0.2-1l-20.9-13.1c-0.36-0.3-0.82-0.1-0.88 0.3l-2.81 18.4c-0.0624 0.3 0.294 0.7 0.683 0.6"/><path d="m21.5 0.0372l-12 4.5c-0.49 0.19-0.46 0.88 0.05 1.03l14 4.12c0.3 0.13 0.7-0.23 0.6-0.64l-2-8.62c0-0.327-0.4-0.514-0.7-0.393"/><path d="m72 16.4l-4.7 16.6c-0.1 0.3 0.2 0.7 0.6 0.7h3.1c0.3 0 0.5-0.2 0.6-0.4l4.9-17.3c0-0.2-0.1-0.5-0.4-0.5h-3c-0.5 0-0.9 0.4-1.1 0.9"/><path d="m118 20.9c-1 1.6-2 1.9-3 1.9h-7c-1 0-1-0.1-1-0.3l1-3.2c0-0.2 1-0.4 1-0.4h6c1 0 3 0.2 3 2m-2 7.3c0 2-2 2.1-4 2.1h-7v-0.2l1-3.5c0-0.3 1-0.4 1-0.4h7c2 0 3 0.2 2 2m6-7.3c1-2.3-1-4.4-3-5-1-0.5-3-0.3-5-0.3h-9v0.4l-5 17c-0.1 0.3 0 0.7 1 0.7h12c1 0 2-0.1 3-0.2 2-0.6 4-2.7 5-5.3 0-1.4 0-2.8-1-3.7v-0.4c1-0.6 2-2 2-3.2"/><path d="m94.8 20.9c-0.5 1.6-1.8 1.9-3.1 1.9h-7c-0.1 0-0.2-0.1-0.2-0.3l0.9-3.2c0.1-0.2 0.3-0.4 0.6-0.4h6.2c1.3 0 3.1 0.2 2.6 2m-1.4 7.3c-0.6 2-2.4 2.1-3.9 2.1h-6.9c-0.2 0-0.3-0.1-0.2-0.2l1-3.5c0-0.3 0.2-0.4 0.5-0.4h7.5c1.5 0 2.5 0.2 2 2m5.8-7.3c0.6-2.3-0.9-4.4-2.9-5-1.3-0.5-3.5-0.3-5-0.3h-8.8c-0.2 0-0.4 0.1-0.5 0.4l-4.9 17c-0.1 0.3 0.2 0.7 0.6 0.7h12.8c0.9 0 1.7-0.1 2.3-0.2 2.7-0.6 4.2-2.7 4.9-5.3 0.5-1.4 0.1-2.8-0.5-3.7-0.1-0.1-0.1-0.3 0.1-0.4 0.9-0.6 1.5-2 1.9-3.2"/><path d="m58.1 23.2c-2.5 0.7-7.7 1.7-7.7 1.7-0.1 0-0.2-0.2-0.2-0.3l1.4-5.3c0.1-0.2 0.3-0.4 0.5-0.4h4 3.5c1.6 0.1 3.1 0.5 2.6 2.1-0.3 1.2-1.8 1.5-4.1 2.2m3.1 3.2c3.5-1.3 4.5-2.3 5.2-4.7 0.8-2.3-0.6-5.1-2.8-5.8-1.2-0.4-3.3-0.3-4.7-0.3-2.1-0.1-8.6 0-10.3 0-0.2 0-0.4 0.1-0.5 0.4l-4.9 17c-0.1 0.3 0.1 0.7 0.5 0.7h3.3c0.2 0 0.4-0.2 0.5-0.4l1.2-3.8c0.1-0.2 0.3-0.3 0.5-0.4 2.4-0.5 4.2-0.9 5.8-1.3 0.2 0 0.4 0.1 0.5 0.3 0.9 1.8 1.5 2.9 2.8 5.2 0.1 0.2 0.3 0.4 0.5 0.4h3.9c0.4 0 0.7-0.4 0.6-0.8l-3-5.9c-0.1-0.1 0-0.3 0.2-0.3 0.3-0.1 0.5-0.2 0.7-0.3"/><path d="m166 15.5h-17c-1 0-1 0.2-1 0.4-2 5.7-3 11.4-5 17.1 0 0.3 0 0.7 1 0.7h17s1 0 1-0.7c0 0-1-1.7-1-2.1v-0.6h-12s-1-0.1-1-0.2c1-1.2 1-2.4 2-3.5v-0.4l11-0.1v-0.3l1-2.5c1-0.4 0-0.5 0-0.5h-11v-0.2c0-0.6 0-2.2 1-3.4v-0.3h11c1 0 1 0 2-0.7l1-2.1v-0.6"/><path d="m139 30.3h-10v-0.2l4-14.1c0-0.2 0-0.5-1-0.5h-3s0 0.2-1 0.5l-4 17c-1 0.3 0 0.7 0 0.7h16s1-0.3 0-0.7v-2.2c0-0.3 0-0.5-1-0.5"/></g></g></g></g></g></g></svg>