<?xml version="1.0" encoding="UTF-8"?>
<svg width="1013px" height="708px" viewBox="0 0 1013 708" version="1.1" xmlns="http://www.w3.org/2000/svg" xmlns:xlink="http://www.w3.org/1999/xlink">
    <g id="Page-1" stroke="none" stroke-width="1" fill="none" fill-rule="evenodd" opacity="0.1">
        <g id="Valley-Pattern" fill="#000000">
            <path d="M384.212,626.14 L421.545,632.853 C422.703,633.061 423.624,631.894 423.155,630.816 L405.073,589.342 C404.586,588.224 403.028,588.15 402.437,589.217 L383.186,623.979 C382.697,624.861 383.22,625.962 384.212,626.14 Z M935.711,128.331 L962.759,81.482 C963.356,80.448 962.538,79.171 961.349,79.281 L914.251,83.653 C913.235,83.748 912.621,84.823 913.057,85.746 L933.106,128.224 C933.613,129.298 935.118,129.36 935.711,128.331 Z M427.524,511.276 L368.152,511.276 L368.579,512.014 L402.297,570.414 C402.905,571.467 404.456,571.369 404.928,570.249 L428.88,513.318 C429.289,512.348 428.576,511.276 427.524,511.276 Z M522.188,622.384 L590.254,613.078 C591.034,612.971 591.592,612.27 591.52,611.486 L586.728,559.187 C586.616,557.954 585.124,557.404 584.237,558.267 L520.962,619.872 C519.945,620.862 520.781,622.576 522.188,622.384 Z M592.502,546.52 L620.944,546.77 C622.357,546.782 622.974,544.989 621.851,544.13 L587.787,518.057 C586.699,517.225 585.164,518.2 585.455,519.539 L591.078,545.362 C591.224,546.033 591.815,546.513 592.502,546.52 Z M510.78,621.332 L576.363,557.479 C577.399,556.47 576.511,554.729 575.086,554.975 L477.409,571.865 C476.353,572.048 475.84,573.261 476.445,574.146 L508.539,621.108 C509.055,621.863 510.126,621.969 510.78,621.332 Z M411.665,575.614 L463,568.045 C464.028,567.893 464.58,566.753 464.061,565.853 L436.207,517.609 C435.598,516.555 434.047,516.653 433.576,517.774 L410.094,573.587 C409.649,574.644 410.53,575.781 411.665,575.614 Z M438.147,633.151 L501.374,625.154 C502.466,625.016 503.025,623.773 502.404,622.864 L471.439,577.555 C470.835,576.671 469.52,576.708 468.965,577.623 L436.703,630.929 C436.066,631.982 436.926,633.305 438.147,633.151 Z M300.486,635.989 L370.69,625.925 C371.702,625.78 372.262,624.672 371.777,623.772 L344.147,572.358 C343.627,571.389 342.268,571.313 341.642,572.217 L299.067,633.696 C298.336,634.751 299.214,636.172 300.486,635.989 Z M156.587,614.518 L175.557,587.606 C176.068,586.881 175.826,585.871 175.04,585.457 L131.727,562.631 C130.468,561.968 129.094,563.301 129.72,564.58 L154.062,614.317 C154.554,615.322 155.942,615.432 156.587,614.518 Z M86.119,638.824 L148.679,621.033 C149.561,620.782 150,619.795 149.598,618.971 L122.3,563.196 C121.76,562.092 120.183,562.098 119.651,563.207 L84.389,636.773 C83.841,637.916 84.899,639.171 86.119,638.824 Z M76.014,634.699 C76.548,635.813 78.134,635.813 78.668,634.699 L114.27,560.422 C114.797,559.323 113.836,558.096 112.643,558.345 L47.888,571.865 C46.953,572.06 46.448,573.081 46.861,573.942 L76.014,634.699 Z M240.736,622.952 L285.8,635.892 C286.741,636.162 287.678,635.456 287.678,634.478 L287.678,591.281 C287.678,590.103 286.364,589.403 285.386,590.059 L240.322,620.316 C239.283,621.014 239.533,622.607 240.736,622.952 Z M163.289,619.527 L217.155,620.038 C218.569,620.051 219.186,618.258 218.064,617.399 L182.857,590.417 C182.194,589.909 181.241,590.054 180.759,590.738 L162.1,617.208 C161.416,618.178 162.102,619.516 163.289,619.527 Z M288.742,575.488 L298.755,508.44 C298.908,507.417 297.985,506.559 296.977,506.787 L212.692,525.807 C211.421,526.094 211.123,527.77 212.217,528.478 L286.488,576.506 C287.386,577.087 288.584,576.545 288.742,575.488 Z M296.415,626.888 L332.972,574.099 C333.783,572.927 332.622,571.402 331.277,571.872 L294.72,584.644 C294.129,584.851 293.734,585.408 293.734,586.033 L293.734,626.05 C293.734,627.492 295.594,628.074 296.415,626.888 Z M231.598,618.879 L276.27,588.885 C277.49,588.066 276.888,586.161 275.418,586.192 L193.864,587.921 C192.474,587.951 191.896,589.714 193,590.56 L229.883,618.825 C230.384,619.209 231.074,619.231 231.598,618.879 Z M935.314,623.632 L962.456,576.62 C963.071,575.554 962.185,574.249 960.967,574.428 L910.977,581.804 C909.949,581.956 909.397,583.095 909.916,583.995 L932.765,623.632 C933.331,624.613 934.747,624.614 935.314,623.632 Z M905.99,441.828 L961.789,443.197 C962.937,443.225 963.674,441.986 963.1,440.99 L935.248,392.75 C934.686,391.777 933.286,391.767 932.71,392.732 L904.763,439.604 C904.186,440.571 904.865,441.801 905.99,441.828 Z M962.082,449.263 L906.063,447.888 C904.921,447.86 904.185,449.087 904.745,450.081 L932.803,499.887 C933.362,500.881 934.789,500.888 935.359,499.901 L963.32,451.469 C963.879,450.502 963.199,449.29 962.082,449.263 Z M963.798,565.854 L935.947,517.614 C935.339,516.56 933.788,516.658 933.316,517.78 L909.872,573.588 C909.428,574.644 910.309,575.781 911.443,575.614 L962.739,568.045 C963.767,567.893 964.318,566.753 963.798,565.854 Z M938.685,371.191 L975.338,311.266 C976.071,310.069 974.869,308.623 973.557,309.125 L933.383,324.496 C932.774,324.729 932.391,325.335 932.442,325.986 L935.963,370.539 C936.076,371.961 937.942,372.407 938.685,371.191 Z M936.476,147.569 C935.838,146.465 934.193,146.639 933.801,147.852 L921.015,187.364 C920.733,188.233 921.303,189.145 922.207,189.274 L961.002,194.811 C962.217,194.984 963.098,193.681 962.484,192.618 L936.476,147.569 Z M962.586,201.154 L921.412,195.278 C920.502,195.148 919.697,195.876 919.734,196.795 L922.574,266.421 C922.633,267.88 924.553,268.37 925.305,267.119 L963.64,203.369 C964.183,202.467 963.629,201.303 962.586,201.154 Z M924.761,288.444 L931.003,317.109 C931.195,317.989 932.125,318.492 932.967,318.17 L971.579,303.397 C972.884,302.897 972.824,301.03 971.489,300.617 L926.634,286.725 C925.558,286.392 924.521,287.342 924.761,288.444 Z M50.873,565.055 L112.351,552.219 C113.483,551.983 113.913,550.592 113.11,549.759 L79.31,514.656 C78.63,513.95 77.465,514.093 76.975,514.941 L49.298,562.879 C48.662,563.98 49.628,565.315 50.873,565.055 Z M810.722,622.098 L830.685,567.745 C831.075,566.683 830.172,565.597 829.058,565.787 L769.423,575.939 C768.281,576.133 767.801,577.51 768.575,578.372 L808.246,622.573 C808.986,623.399 810.339,623.139 810.722,622.098 Z M680.858,618.049 L711.553,627.057 C712.571,627.356 713.561,626.511 713.426,625.458 L706.161,568.753 C705.975,567.306 704.023,566.982 703.38,568.291 L679.952,615.989 C679.549,616.808 679.982,617.792 680.858,618.049 Z M721.54,621.284 L754.86,577.249 C755.45,576.469 755.13,575.343 754.219,574.989 L713.219,559.08 C712.179,558.677 711.085,559.532 711.227,560.639 L718.908,620.584 C719.075,621.891 720.745,622.336 721.54,621.284 Z M602.588,612.842 L666.744,616.015 C667.911,616.073 668.676,614.814 668.088,613.805 L635.602,558.009 C635.039,557.042 633.646,557.032 633.069,557.99 L601.4,610.614 C600.827,611.567 601.477,612.787 602.588,612.842 Z M675.862,610.578 L701.528,558.326 C701.994,557.377 701.336,556.26 700.28,556.208 L642.528,553.351 C641.362,553.293 640.596,554.552 641.184,555.561 L673.27,610.669 C673.861,611.684 675.344,611.632 675.862,610.578 Z M880.728,636.254 L927.007,629.821 C928.04,629.677 928.6,628.532 928.079,627.629 L905.472,588.411 C904.891,587.404 903.426,587.437 902.891,588.469 L879.219,634.119 C878.669,635.179 879.545,636.418 880.728,636.254 Z M726.509,628.702 L801.094,627.316 C802.354,627.292 803.003,625.8 802.162,624.862 L762.263,580.406 C761.645,579.717 760.553,579.763 759.995,580.501 L725.308,626.343 C724.567,627.322 725.281,628.724 726.509,628.702 Z M874.073,630.887 L898.727,583.342 C899.16,582.508 898.711,581.488 897.804,581.243 L844.69,566.923 C843.485,566.598 842.449,567.825 842.97,568.959 L871.43,630.825 C871.941,631.937 873.509,631.974 874.073,630.887 Z M599.417,602.164 L627.737,555.106 C628.324,554.13 627.628,552.885 626.489,552.876 L593.831,552.588 C592.96,552.58 592.273,553.326 592.353,554.194 L596.691,601.54 C596.82,602.956 598.684,603.383 599.417,602.164 Z M816.838,628.069 L864.643,636.063 C865.808,636.258 866.716,635.07 866.222,633.997 L838.009,572.665 C837.46,571.473 835.744,571.541 835.291,572.773 L815.7,626.11 C815.382,626.976 815.929,627.917 816.838,628.069 Z M378.839,619.327 L398.723,583.423 C399.191,582.578 398.731,581.519 397.795,581.283 L352.486,569.877 C351.247,569.565 350.226,570.874 350.831,572.001 L376.256,619.311 C376.807,620.336 378.275,620.345 378.839,619.327 Z M700.339,101.657 L661.495,131.19 C660.355,132.057 660.999,133.876 662.431,133.832 L702.718,132.601 C703.541,132.576 704.184,131.879 704.142,131.055 L702.7,102.753 C702.639,101.572 701.281,100.941 700.339,101.657 Z M703.587,138.634 L658.248,140.019 C656.997,140.057 656.362,141.542 657.198,142.473 L713.634,205.31 C714.621,206.409 716.431,205.531 716.179,204.076 L705.081,139.854 C704.957,139.132 704.319,138.612 703.587,138.634 Z M782.512,79.767 L709.652,96.209 C708.954,96.366 708.471,97.004 708.507,97.719 L710.027,127.543 C710.085,128.675 711.347,129.319 712.297,128.703 L783.637,82.437 C785.015,81.543 784.114,79.405 782.512,79.767 Z M795.399,82.026 L718.909,131.633 C717.777,132.367 718.148,134.112 719.481,134.321 L770.483,142.336 C771.142,142.44 771.788,142.087 772.057,141.478 L797.545,83.856 C798.137,82.518 796.626,81.23 795.399,82.026 Z M539.678,84.475 L511.291,133.641 C510.803,134.488 511.26,135.566 512.207,135.804 L570.2,150.378 C571.401,150.679 572.415,149.454 571.893,148.331 L542.287,84.591 C541.785,83.51 540.273,83.444 539.678,84.475 Z M612.605,71.764 L584.425,148.569 C584.016,149.685 585.03,150.801 586.18,150.499 L642.54,135.714 C643.423,135.482 643.884,134.512 643.507,133.682 L615.327,71.662 C614.782,70.464 613.059,70.528 612.605,71.764 Z M696.532,94.1 L622.595,66.965 C621.37,66.515 620.208,67.766 620.748,68.955 L648.896,130.903 C649.287,131.763 650.375,132.037 651.126,131.466 L696.915,96.653 C697.841,95.949 697.623,94.501 696.532,94.1 Z M606.227,65.035 L547.554,77.269 C546.626,77.463 546.121,78.469 546.52,79.329 L576.792,144.502 C577.344,145.691 579.057,145.619 579.508,144.389 L607.909,66.983 C608.306,65.899 607.357,64.8 606.227,65.035 Z M532.944,79.362 L500.129,82.692 C499.271,82.778 498.672,83.58 498.832,84.427 L506.42,124.79 C506.673,126.132 508.458,126.437 509.141,125.254 L534.367,81.562 C534.967,80.523 534.138,79.241 532.944,79.362 Z M901.467,433.305 L928.632,387.748 C929.106,386.951 928.735,385.92 927.862,385.608 L887.758,371.308 C886.671,370.921 885.582,371.878 885.826,373.006 L898.765,432.863 C899.047,434.169 900.783,434.453 901.467,433.305 Z M924.408,331.173 L888.828,362.95 C887.995,363.694 888.262,365.058 889.313,365.433 L928.51,379.409 C929.515,379.767 930.555,378.971 930.471,377.907 L926.854,332.155 C926.759,330.941 925.315,330.362 924.408,331.173 Z M898.875,452.002 C898.361,451.09 897.086,450.991 896.438,451.813 L865.331,491.244 C864.64,492.121 865.138,493.418 866.239,493.606 L925.23,503.673 C926.452,503.882 927.368,502.58 926.76,501.501 L898.875,452.002 Z M905.122,87.596 L848.259,139.796 C847.219,140.75 847.989,142.479 849.394,142.344 L927.375,134.884 C928.39,134.787 929,133.713 928.565,132.791 L907.448,88.052 C907.024,87.154 905.853,86.925 905.122,87.596 Z M898.823,82.077 L856.907,71.142 C856.094,70.93 855.268,71.441 855.095,72.263 L842.186,133.527 C841.892,134.927 843.567,135.882 844.621,134.914 L899.446,84.585 C900.305,83.797 899.95,82.371 898.823,82.077 Z M927.507,140.955 L850.951,148.279 C849.515,148.417 849.113,150.323 850.372,151.028 L913.178,186.193 C913.988,186.647 915.011,186.246 915.297,185.363 L929.047,142.873 C929.372,141.866 928.56,140.854 927.507,140.955 Z M844.576,79.722 L783.204,140.451 C782.275,141.369 782.915,142.952 784.221,142.968 L832.671,143.563 C833.373,143.572 833.984,143.082 834.129,142.395 L847.05,81.071 C847.351,79.643 845.613,78.695 844.576,79.722 Z M917.877,285.296 C917.745,284.688 917.244,284.229 916.627,284.15 L879.581,279.393 C878.072,279.199 877.297,281.141 878.523,282.039 L921.366,313.41 C922.458,314.211 923.961,313.234 923.673,311.91 L917.877,285.296 Z M429.922,109.438 L373.648,135.629 C372.478,136.174 372.526,137.854 373.726,138.331 L412.275,153.655 C413.017,153.95 413.858,153.599 414.172,152.865 L431.896,111.349 C432.426,110.109 431.145,108.868 429.922,109.438 Z M123.096,64.801 L49.28,77.246 C48.205,77.427 47.693,78.673 48.331,79.557 L90.405,137.943 C91.067,138.863 92.478,138.719 92.941,137.684 L124.684,66.854 C125.164,65.781 124.255,64.605 123.096,64.801 Z M130.466,68.758 L99.096,138.759 C98.592,139.884 99.611,141.093 100.806,140.786 L169.989,122.987 C170.993,122.728 171.422,121.539 170.813,120.698 L133,68.497 C132.336,67.58 130.929,67.725 130.466,68.758 Z M52.192,196.087 L106.474,196.087 C107.508,196.087 108.219,195.049 107.846,194.085 L92.239,153.735 C91.851,152.73 90.55,152.47 89.805,153.247 L51.13,193.597 C50.233,194.533 50.896,196.087 52.192,196.087 Z M72.306,386.234 L47.594,440.65 C47.128,441.676 47.941,442.823 49.064,442.723 L95.799,438.579 C96.801,438.49 97.42,437.445 97.017,436.523 L74.993,386.252 C74.482,385.086 72.832,385.075 72.306,386.234 Z M179.791,77.304 L142.511,66.828 C141.168,66.451 140.103,67.979 140.921,69.108 L173.128,113.57 C173.901,114.637 175.58,114.228 175.775,112.924 L180.849,78.938 C180.958,78.205 180.505,77.505 179.791,77.304 Z M61.149,307.31 L74.741,366.69 C75.007,367.851 76.47,368.232 77.267,367.348 L123.002,316.678 C123.79,315.805 123.287,314.407 122.123,314.237 L62.798,305.526 C61.774,305.376 60.919,306.301 61.149,307.31 Z M63.359,299.488 L117.437,307.427 C118.853,307.635 119.703,305.904 118.671,304.911 L79.625,267.34 C78.912,266.654 77.74,266.852 77.292,267.735 L62.261,297.366 C61.806,298.262 62.365,299.342 63.359,299.488 Z M76.068,252.678 C76.635,253.659 78.051,253.659 78.617,252.678 L106.519,204.35 C107.086,203.369 106.378,202.143 105.245,202.143 L49.44,202.143 C48.308,202.143 47.6,203.369 48.166,204.35 L76.068,252.678 Z M418.665,66.383 L334.278,77.579 C333.239,77.717 332.674,78.866 333.198,79.774 L362.419,130.386 C362.92,131.255 364.124,131.378 364.791,130.631 L419.957,68.821 C420.866,67.803 420.019,66.203 418.665,66.383 Z M95.475,444.688 L48.941,448.815 C47.87,448.91 47.259,450.085 47.797,451.016 L75.182,498.448 C75.804,499.527 77.401,499.392 77.835,498.224 L96.984,446.666 C97.36,445.652 96.552,444.592 95.475,444.688 Z M481.207,79.413 L436.751,66.77 C435.678,66.465 434.668,67.419 434.914,68.508 L441.1,95.978 C441.297,96.855 442.228,97.351 443.067,97.027 L481.336,82.2 C482.652,81.69 482.565,79.799 481.207,79.413 Z M186.593,81.475 L181.365,116.491 C181.193,117.648 182.373,118.534 183.436,118.045 L227.122,97.951 C228.303,97.408 228.251,95.713 227.039,95.243 L188.581,80.321 C187.701,79.98 186.732,80.543 186.593,81.475 Z M419.877,157.784 L460.615,188.304 C461.759,189.161 463.33,188.048 462.9,186.684 L440.061,114.241 C439.65,112.939 437.84,112.85 437.304,114.106 L419.406,156.029 C419.14,156.653 419.334,157.378 419.877,157.784 Z M490.997,84.952 L449.52,101.021 C448.347,101.475 448.248,103.096 449.357,103.69 L498.837,130.184 C499.926,130.768 501.206,129.83 500.978,128.615 L492.975,86.052 C492.804,85.148 491.855,84.62 490.997,84.952 Z M325.937,83.725 L298.035,132.053 C297.469,133.034 298.177,134.26 299.31,134.26 L355.114,134.26 C356.247,134.26 356.955,133.034 356.388,132.053 L328.486,83.725 C327.92,82.744 326.504,82.744 325.937,83.725 Z M256.862,71.362 L203.494,76.625 C201.953,76.777 201.663,78.901 203.106,79.461 L236.532,92.43 C237.053,92.632 237.644,92.522 238.057,92.144 L257.999,73.912 C259.044,72.958 258.27,71.223 256.862,71.362 Z M320.219,77.491 L276.624,71.056 C275.555,70.899 274.686,71.909 275.002,72.942 L291.386,126.509 C291.762,127.739 293.424,127.928 294.067,126.814 L321.279,79.682 C321.798,78.782 321.247,77.642 320.219,77.491 Z M266.812,74.061 L244.045,94.875 C243.369,95.493 243.416,96.571 244.143,97.129 L282.207,126.33 C283.343,127.201 284.928,126.101 284.509,124.732 L269.212,74.717 C268.895,73.683 267.61,73.332 266.812,74.061 Z M997.747,371.646 L984.328,313.013 C984.034,311.727 982.327,311.448 981.638,312.573 L941.525,378.155 C940.88,379.21 941.744,380.541 942.97,380.382 L996.502,373.433 C997.364,373.322 997.941,372.492 997.747,371.646 Z M503.248,631.031 L439.213,639.13 C437.975,639.286 437.481,640.816 438.395,641.666 L491.103,690.731 C491.947,691.516 493.325,691.071 493.549,689.94 L504.875,632.777 C505.07,631.792 504.244,630.906 503.248,631.031 Z M435.045,646.822 C434.092,645.934 432.541,646.632 432.572,647.933 L433.245,676.675 C433.26,677.319 433.693,677.879 434.313,678.055 L477.803,690.424 C479.29,690.847 480.339,688.985 479.208,687.932 L435.045,646.822 Z M512.192,640.616 C511.576,639.347 509.7,639.59 509.426,640.973 L499.103,693.072 C498.91,694.042 499.71,694.922 500.694,694.822 L534.67,691.375 C535.687,691.272 536.292,690.188 535.845,689.268 L512.192,640.616 Z M585.285,619.879 L515.621,629.404 C514.629,629.539 514.059,630.605 514.497,631.505 L540.722,685.449 C541.216,686.464 542.622,686.568 543.26,685.636 L586.698,622.168 C587.419,621.115 586.549,619.706 585.285,619.879 Z M674.235,627.228 C673.897,626.196 672.596,625.873 671.814,626.628 L620.81,675.884 C620.03,676.638 620.307,677.949 621.326,678.323 L697.619,706.323 C698.773,706.747 699.907,705.653 699.524,704.484 L674.235,627.228 Z M664.352,621.97 L601.108,618.842 C600.096,618.792 599.337,619.756 599.624,620.727 L614.349,670.712 C614.662,671.772 615.988,672.122 616.783,671.354 L665.301,624.499 C666.227,623.604 665.638,622.034 664.352,621.97 Z M594.702,625.449 C594.351,624.26 592.776,624.011 592.076,625.034 L550.2,686.219 C549.452,687.313 550.417,688.761 551.715,688.49 L608.149,676.724 C608.99,676.549 609.503,675.692 609.26,674.868 L594.702,625.449 Z M460.982,574.464 L410.466,581.912 C409.507,582.053 408.944,583.068 409.332,583.956 L428.597,628.145 C429.074,629.239 430.586,629.34 431.204,628.319 L462.456,576.682 C463.101,575.617 462.214,574.282 460.982,574.464 Z M156.012,633.527 C155.51,632.324 153.807,632.32 153.299,633.52 L135.666,675.169 C135.321,675.985 135.77,676.919 136.623,677.159 L176.297,688.307 C177.481,688.64 178.526,687.459 178.053,686.323 L156.012,633.527 Z M231.789,630.719 C231.216,629.816 229.901,629.806 229.315,630.701 L192.111,687.531 C191.435,688.565 192.257,689.923 193.487,689.801 L262.452,683.001 C263.543,682.893 264.138,681.673 263.55,680.748 L231.789,630.719 Z M222.346,626.154 L161.478,625.575 C160.422,625.565 159.7,626.639 160.106,627.614 L183.955,684.74 C184.41,685.83 185.897,685.967 186.544,684.979 L223.563,628.431 C224.201,627.458 223.51,626.165 222.346,626.154 Z M712.69,633.712 L682.228,624.773 C681.092,624.439 680.047,625.516 680.415,626.642 L702.25,693.346 C702.733,694.821 704.875,694.64 705.104,693.106 L713.731,635.341 C713.839,634.614 713.395,633.919 712.69,633.712 Z M292.686,648.709 C292.041,647.767 290.615,647.887 290.137,648.925 L275.292,681.107 C274.881,681.999 275.442,683.035 276.414,683.179 L317.461,689.238 C318.732,689.425 319.616,688.01 318.89,686.95 L292.686,648.709 Z M378.999,633.756 C378.369,633.135 377.336,633.207 376.798,633.91 L336.213,686.955 C335.417,687.996 336.276,689.481 337.576,689.308 L420.781,678.269 C421.994,678.108 422.492,676.622 421.62,675.762 L378.999,633.756 Z M425.143,639.662 L391.267,633.572 C389.843,633.316 388.943,635.053 389.974,636.068 L424.504,670.101 C425.446,671.029 427.039,670.341 427.008,669.018 L426.353,641.076 C426.337,640.377 425.831,639.786 425.143,639.662 Z M367.014,632.58 L298.3,642.431 C297.221,642.586 296.679,643.821 297.295,644.72 L326.199,686.902 C326.765,687.728 327.973,687.76 328.581,686.964 L368.392,634.93 C369.192,633.884 368.319,632.392 367.014,632.58 Z M284.83,641.924 L241.163,629.386 C239.862,629.012 238.789,630.446 239.515,631.589 L268.155,676.702 C268.78,677.686 270.246,677.588 270.734,676.53 L285.76,643.955 C286.138,643.136 285.696,642.173 284.83,641.924 Z M815.738,641.378 C814.918,640.304 813.206,640.811 813.102,642.159 L809.852,684.466 C809.782,685.373 810.546,686.126 811.453,686.044 L844.716,683.018 C845.869,682.914 846.455,681.58 845.752,680.66 L815.738,641.378 Z M904.832,569.947 L929.05,512.3 C929.417,511.426 928.874,510.439 927.941,510.28 L866.87,499.857 C865.66,499.651 864.744,500.929 865.328,502.008 L902.182,570.078 C902.77,571.164 904.354,571.086 904.832,569.947 Z M970.593,437.202 L995.703,381.909 C996.18,380.859 995.318,379.694 994.174,379.842 L941.118,386.729 C940.076,386.864 939.508,388.015 940.033,388.924 L967.979,437.329 C968.578,438.366 970.098,438.292 970.593,437.202 Z M996.655,266.177 L936.752,280.655 C935.299,281.007 935.234,283.049 936.662,283.491 L982.085,297.559 C982.77,297.771 983.509,297.459 983.833,296.819 L998.313,268.273 C998.881,267.153 997.875,265.882 996.655,266.177 Z M1011.11,146.83 L942.476,139.886 C941.282,139.765 940.454,141.047 941.054,142.086 L969.357,191.11 C969.848,191.959 971.015,192.1 971.694,191.392 L1012.03,149.312 C1012.87,148.427 1012.33,146.954 1011.11,146.83 Z M795.794,686.273 L721.523,638.245 C720.625,637.664 719.427,638.205 719.268,639.263 L709.256,706.311 C709.103,707.334 710.026,708.191 711.035,707.963 L795.319,688.944 C796.59,688.657 796.889,686.981 795.794,686.273 Z M970.927,207.241 C970.366,206.27 968.969,206.258 968.392,207.219 L928.3,273.891 C927.627,275.01 928.637,276.386 929.907,276.08 L998.868,259.411 C999.823,259.18 1000.29,258.096 999.797,257.245 L970.927,207.241 Z M968.875,81.702 L940.138,131.476 C939.604,132.401 940.202,133.569 941.265,133.676 L1010.95,140.727 C1012.21,140.854 1013.03,139.432 1012.29,138.403 L971.343,81.577 C970.719,80.711 969.409,80.777 968.875,81.702 Z M971.006,454.685 C970.439,453.704 969.023,453.704 968.457,454.685 L940.556,503.013 C939.99,503.994 940.698,505.22 941.83,505.22 L997.634,505.22 C998.767,505.22 999.474,503.994 998.908,503.013 L971.006,454.685 Z M866.352,642.499 L821.717,635.035 C820.401,634.815 819.495,636.32 820.305,637.38 L850.855,677.364 C851.538,678.257 852.928,678.087 853.375,677.055 L867.46,644.535 C867.84,643.657 867.295,642.656 866.352,642.499 Z M874.417,649.582 C873.804,648.55 872.279,648.646 871.802,649.748 L857.971,681.683 C857.612,682.511 858.076,683.464 858.949,683.692 L897.747,693.814 C899.02,694.146 900.056,692.769 899.384,691.639 L874.417,649.582 Z M146.475,627.966 L87.789,644.655 C86.569,645.002 86.331,646.627 87.399,647.31 L128.027,673.272 C128.795,673.762 129.82,673.445 130.175,672.606 L148.232,629.954 C148.714,628.816 147.663,627.627 146.475,627.966 Z M806.094,633.29 L732.097,634.664 C730.645,634.692 730.106,636.583 731.326,637.371 L801.72,682.891 C802.656,683.497 803.9,682.881 803.986,681.769 L807.588,634.874 C807.655,634.009 806.962,633.274 806.094,633.29 Z M926.844,635.968 L879.647,642.528 C878.605,642.673 878.048,643.832 878.584,644.737 L905.479,690.041 C906.105,691.095 907.668,690.968 908.115,689.826 L928.417,637.961 C928.827,636.914 927.958,635.813 926.844,635.968 Z M970.69,579.073 C970.179,578.007 968.681,577.95 968.09,578.974 L939.873,627.848 C939.362,628.733 939.886,629.856 940.892,630.033 L997.327,639.968 C998.506,640.176 999.427,638.962 998.909,637.882 L970.69,579.073 Z M997.818,646.213 L943.011,636.566 C941.781,636.349 940.857,637.668 941.482,638.751 L968.885,686.215 C969.418,687.138 970.726,687.206 971.351,686.343 L998.755,648.525 C999.393,647.645 998.889,646.401 997.818,646.213 Z M997.634,511.276 L941.83,511.276 C940.698,511.276 939.99,512.502 940.556,513.483 L968.457,561.811 C969.023,562.792 970.439,562.792 971.006,561.811 L998.908,513.483 C999.474,512.502 998.767,511.276 997.634,511.276 Z M936.091,641.527 C935.475,640.458 933.896,640.577 933.447,641.726 L913.057,693.816 C912.657,694.836 913.472,695.919 914.563,695.818 L962.46,691.371 C963.528,691.272 964.135,690.1 963.598,689.171 L936.091,641.527 Z M702.25,75.07 C702.733,76.546 704.875,76.365 705.104,74.83 L713.73,17.066 C713.839,16.339 713.395,15.644 712.69,15.437 L682.228,6.497 C681.092,6.163 680.047,7.24 680.416,8.366 L702.25,75.07 Z M500.694,76.547 L534.67,73.1 C535.688,72.997 536.292,71.912 535.845,70.993 L512.192,22.341 C511.576,21.072 509.7,21.314 509.426,22.698 L499.103,74.797 C498.91,75.767 499.71,76.647 500.694,76.547 Z M540.722,67.174 C541.216,68.189 542.622,68.293 543.26,67.361 L586.698,3.893 C587.419,2.84 586.549,1.431 585.285,1.604 L515.621,11.128 C514.629,11.264 514.059,12.329 514.497,13.23 L540.722,67.174 Z M491.103,72.456 C491.947,73.241 493.325,72.795 493.549,71.665 L504.875,14.502 C505.07,13.517 504.244,12.631 503.248,12.757 L439.213,20.855 C437.975,21.011 437.482,22.541 438.395,23.391 L491.103,72.456 Z M424.504,51.826 C425.446,52.754 427.039,52.065 427.008,50.743 L426.353,22.8 C426.337,22.101 425.831,21.51 425.143,21.386 L391.266,15.296 C389.842,15.04 388.942,16.777 389.973,17.792 L424.504,51.826 Z M434.313,59.78 L477.802,72.148 C479.289,72.571 480.339,70.709 479.207,69.656 L435.045,28.547 C434.092,27.66 432.541,28.357 432.572,29.658 L433.245,58.399 C433.26,59.044 433.693,59.603 434.313,59.78 Z M337.576,71.032 L420.781,59.993 C421.994,59.832 422.492,58.346 421.62,57.486 L378.999,15.48 C378.369,14.859 377.336,14.931 376.798,15.634 L336.214,68.679 C335.417,69.72 336.276,71.205 337.576,71.032 Z M379.704,123.017 C378.639,124.21 379.973,126.006 381.422,125.331 L434.727,100.521 C435.354,100.229 435.694,99.539 435.542,98.863 L429.263,70.984 C429,69.817 427.527,69.435 426.73,70.328 L379.704,123.017 Z M551.715,70.215 L608.149,58.448 C608.99,58.273 609.503,57.416 609.26,56.592 L594.701,7.174 C594.351,5.985 592.776,5.736 592.076,6.759 L550.2,67.944 C549.452,69.037 550.417,70.486 551.715,70.215 Z M905.479,71.766 C906.105,72.82 907.668,72.692 908.115,71.552 L928.416,19.686 C928.827,18.639 927.958,17.538 926.844,17.693 L879.647,24.253 C878.605,24.398 878.048,25.557 878.584,26.461 L905.479,71.766 Z M844.716,64.743 C845.869,64.638 846.455,63.305 845.752,62.385 L815.738,23.103 C814.918,22.029 813.206,22.536 813.102,23.883 L809.719,67.926 L809.788,67.92 L844.716,64.743 Z M850.855,59.089 C851.537,59.982 852.928,59.811 853.374,58.78 L867.46,26.26 C867.84,25.382 867.295,24.382 866.352,24.224 L821.717,16.759 C820.401,16.539 819.495,18.044 820.305,19.104 L850.855,59.089 Z M858.949,65.417 L897.748,75.538 C899.02,75.87 900.056,74.494 899.385,73.363 L874.417,31.306 C873.805,30.274 872.279,30.371 871.802,31.473 L857.971,63.408 C857.612,64.236 858.076,65.189 858.949,65.417 Z M788.193,126.994 L842.068,73.683 C843.049,72.713 842.274,71.047 840.899,71.172 L809.336,74.042 C808.804,74.091 808.34,74.424 808.124,74.912 L785.812,125.353 C785.155,126.839 787.038,128.137 788.193,126.994 Z M621.326,60.048 L697.619,88.049 C698.773,88.472 699.907,87.378 699.524,86.209 L674.235,8.953 C673.897,7.921 672.596,7.597 671.814,8.352 L620.811,57.608 C620.03,58.362 620.307,59.674 621.326,60.048 Z M731.325,19.096 L801.72,64.617 C802.656,65.223 803.9,64.606 803.986,63.494 L807.588,16.598 C807.655,15.733 806.962,14.998 806.094,15.014 L732.097,16.389 C730.645,16.416 730.105,18.307 731.325,19.096 Z M614.349,52.436 C614.662,53.496 615.988,53.846 616.783,53.079 L665.301,6.223 C666.227,5.328 665.638,3.758 664.352,3.695 L601.108,0.567 C600.096,0.517 599.337,1.481 599.624,2.452 L614.349,52.436 Z M326.199,68.627 C326.765,69.452 327.973,69.484 328.581,68.689 L368.391,16.655 C369.192,15.608 368.318,14.117 367.014,14.304 L298.3,24.156 C297.22,24.31 296.678,25.545 297.294,26.444 L326.199,68.627 Z M711.035,89.689 L795.319,70.668 C796.59,70.381 796.889,68.705 795.794,67.997 L721.523,19.969 C720.625,19.388 719.427,19.929 719.268,20.987 L709.256,88.036 C709.103,89.059 710.026,89.916 711.035,89.689 Z M71.712,257.245 L42.843,207.241 C42.282,206.271 40.885,206.258 40.307,207.219 L0.215,273.891 C-0.458,275.01 0.552,276.386 1.822,276.08 L70.784,259.411 C71.739,259.18 72.204,258.096 71.712,257.245 Z M53.553,312.573 L13.44,378.155 C12.795,379.21 13.659,380.541 14.885,380.382 L68.417,373.433 C69.278,373.322 69.856,372.492 69.662,371.646 L56.242,313.013 C55.948,311.727 54.241,311.448 53.553,312.573 Z M55.747,296.819 L70.229,268.273 C70.796,267.153 69.791,265.882 68.57,266.177 L8.667,280.655 C7.214,281.007 7.15,283.049 8.578,283.491 L54,297.559 C54.684,297.771 55.423,297.459 55.747,296.819 Z M119.417,674.957 L79.288,649.314 C78.632,648.895 77.762,649.06 77.305,649.691 L50.553,686.609 C49.779,687.676 50.69,689.143 51.988,688.924 L118.869,677.647 C120.197,677.424 120.552,675.681 119.417,674.957 Z M11.948,388.924 L39.895,437.329 C40.493,438.366 42.013,438.292 42.508,437.202 L67.618,381.909 C68.095,380.859 67.233,379.694 66.089,379.842 L13.032,386.729 C11.991,386.864 11.423,388.015 11.948,388.924 Z M40.373,454.685 L12.471,503.013 C11.904,503.994 12.612,505.22 13.745,505.22 L69.55,505.22 C70.682,505.22 71.39,503.994 70.824,503.013 L42.921,454.685 C42.355,453.704 40.939,453.704 40.373,454.685 Z M69.734,646.213 L14.926,636.566 C13.695,636.349 12.772,637.668 13.396,638.75 L40.801,686.215 C41.333,687.138 42.641,687.206 43.267,686.343 L70.67,648.525 C71.308,647.645 70.805,646.401 69.734,646.213 Z M40.373,561.811 C40.939,562.792 42.355,562.792 42.921,561.811 L70.824,513.483 C71.39,512.502 70.682,511.276 69.55,511.276 L13.745,511.276 C12.612,511.276 11.904,512.502 12.471,513.483 L40.373,561.811 Z M70.824,637.882 L42.606,579.073 C42.095,578.007 40.597,577.949 40.006,578.974 L11.788,627.848 C11.277,628.733 11.801,629.856 12.807,630.033 L69.243,639.968 C70.422,640.176 71.342,638.962 70.824,637.882 Z M83.027,148.131 L14.391,141.186 C13.197,141.065 12.368,142.347 12.968,143.385 L41.272,192.41 C41.763,193.259 42.931,193.4 43.609,192.692 L83.941,150.613 C84.789,149.727 84.247,148.254 83.027,148.131 Z M136.623,58.883 L176.297,70.031 C177.481,70.365 178.527,69.183 178.053,68.048 L156.012,15.251 C155.51,14.049 153.808,14.044 153.299,15.244 L135.666,56.893 C135.321,57.709 135.77,58.644 136.623,58.883 Z M183.955,66.465 C184.409,67.554 185.897,67.692 186.543,66.704 L223.563,10.156 C224.201,9.182 223.51,7.889 222.347,7.879 L161.478,7.3 C160.422,7.291 159.7,8.364 160.106,9.339 L183.955,66.465 Z M268.155,58.427 C268.78,59.411 270.246,59.313 270.734,58.255 L285.76,25.679 C286.138,24.861 285.696,23.898 284.83,23.649 L241.163,11.111 C239.861,10.737 238.789,12.171 239.515,13.313 L268.155,58.427 Z M276.414,64.904 L317.461,70.962 C318.732,71.15 319.616,69.734 318.89,68.674 L292.686,30.433 C292.041,29.491 290.615,29.611 290.137,30.649 L275.292,62.832 C274.881,63.723 275.442,64.76 276.414,64.904 Z M193.487,71.526 L262.452,64.726 C263.543,64.618 264.138,63.398 263.55,62.472 L231.789,12.444 C231.215,11.541 229.901,11.531 229.315,12.426 L192.111,69.256 C191.434,70.29 192.257,71.647 193.487,71.526 Z M13.179,134.976 L82.866,142.027 C84.128,142.155 84.95,140.732 84.208,139.703 L43.259,82.878 C42.634,82.011 41.324,82.077 40.79,83.002 L12.053,132.777 C11.519,133.701 12.117,134.869 13.179,134.976 Z M40.801,67.94 C41.333,68.863 42.641,68.93 43.267,68.067 L70.67,30.25 C71.308,29.37 70.805,28.126 69.734,27.938 L14.926,18.29 C13.695,18.073 12.772,19.392 13.396,20.474 L40.801,67.94 Z M87.399,29.035 L128.027,54.996 C128.795,55.487 129.819,55.169 130.175,54.33 L148.231,11.68 C148.713,10.542 147.663,9.353 146.474,9.691 L87.789,26.38 C86.569,26.727 86.33,28.352 87.399,29.035 Z M51.988,70.648 L118.869,59.372 C120.197,59.148 120.551,57.406 119.417,56.681 L79.288,31.039 C78.632,30.619 77.762,30.784 77.305,31.416 L50.553,68.334 C49.779,69.4 50.69,70.867 51.988,70.648 Z M755.073,317.553 L781.435,271.894 C782.155,270.645 780.835,269.212 779.532,269.828 L719.383,298.24 C718.278,298.762 718.254,300.325 719.342,300.881 L753.129,318.128 C753.827,318.484 754.681,318.232 755.073,317.553 Z M538.466,209.203 L506.209,259.075 C505.512,260.153 506.433,261.545 507.698,261.324 L551.519,253.674 C552.374,253.524 552.914,252.672 552.685,251.835 L541.121,209.613 C540.785,208.387 539.157,208.135 538.466,209.203 Z M533.117,202.143 L476.76,202.143 C475.708,202.143 474.996,203.214 475.403,204.183 L497.569,257.044 C498.026,258.135 499.519,258.267 500.162,257.274 L534.352,204.414 C534.985,203.434 534.282,202.143 533.117,202.143 Z M439.853,250.785 L409.88,339.057 C409.479,340.238 410.638,341.351 411.802,340.904 L462.453,321.439 C463.172,321.162 463.556,320.379 463.334,319.642 L442.655,250.834 C442.243,249.463 440.313,249.428 439.853,250.785 Z M467.685,207.141 L447.148,234.087 C446.596,234.812 446.829,235.86 447.637,236.283 L488.415,257.609 C489.636,258.248 490.987,257.008 490.454,255.736 L470.212,207.464 C469.774,206.42 468.371,206.241 467.685,207.141 Z M434.505,240.88 L358.856,254.993 C357.871,255.176 357.353,256.27 357.837,257.149 L401.659,336.772 C402.275,337.893 403.93,337.747 404.341,336.536 L436.168,242.8 C436.53,241.735 435.611,240.674 434.505,240.88 Z M348.082,201.372 L309.774,260.723 C309.026,261.882 310.142,263.341 311.457,262.923 L348.234,251.235 C348.828,251.046 349.239,250.503 349.259,249.88 L350.789,202.217 C350.837,200.726 348.891,200.119 348.082,201.372 Z M351.315,262.779 L322.131,330.138 C321.747,331.026 322.309,332.037 323.266,332.178 L395.395,342.85 C396.599,343.029 397.486,341.751 396.899,340.685 L353.954,262.654 C353.364,261.583 351.801,261.656 351.315,262.779 Z M402.123,167.453 L358.129,187.688 C357.623,187.921 357.291,188.42 357.273,188.977 L355.718,237.422 C355.67,238.903 357.596,239.517 358.415,238.282 L403.964,169.603 C404.783,168.368 403.469,166.834 402.123,167.453 Z M704.227,299.411 L637.528,256.28 C636.184,255.41 634.614,257.01 635.51,258.338 L682.973,328.689 C683.548,329.542 684.8,329.556 685.394,328.715 L704.629,301.495 C705.112,300.812 704.929,299.865 704.227,299.411 Z M710.032,304.344 L692.938,328.533 C692.178,329.61 693.107,331.067 694.404,330.83 L741.926,322.174 C743.31,321.921 743.585,320.055 742.331,319.415 L711.903,303.883 C711.251,303.551 710.454,303.747 710.032,304.344 Z M602.025,202.143 L547.283,202.143 C546.312,202.143 545.607,203.067 545.864,204.003 L557.77,247.473 C558.07,248.567 559.442,248.925 560.238,248.117 L603.074,204.647 C603.99,203.717 603.331,202.143 602.025,202.143 Z M762.852,214.45 L719.729,288.41 C719.001,289.659 720.322,291.099 721.629,290.482 L785.854,260.143 C786.594,259.794 786.907,258.908 786.55,258.172 L765.447,214.55 C764.935,213.489 763.445,213.432 762.852,214.45 Z M754.323,211.975 L725.419,221.009 C724.881,221.177 724.486,221.639 724.402,222.197 L716.263,276.697 C716.023,278.301 718.173,279.056 718.989,277.655 L756.034,214.12 C756.71,212.96 755.605,211.574 754.323,211.975 Z M341.342,195.627 L278.074,225.692 C277.276,226.072 276.99,227.065 277.464,227.811 L299.227,262.049 C299.803,262.955 301.123,262.959 301.705,262.057 L343.209,197.754 C344.013,196.509 342.68,194.991 341.342,195.627 Z M611.372,208.151 C611.155,206.981 609.712,206.539 608.877,207.386 L569.725,247.118 C568.696,248.162 569.658,249.903 571.088,249.589 L615.787,239.761 C616.561,239.591 617.062,238.836 616.917,238.055 L611.372,208.151 Z M623.154,255.602 L620.959,309.262 C620.933,309.908 621.331,310.496 621.941,310.71 L672.283,328.416 C673.62,328.886 674.784,327.38 673.991,326.205 L625.844,254.84 C625.049,253.661 623.212,254.182 623.154,255.602 Z M699.554,217.986 L618.654,203.262 C617.64,203.078 616.756,203.966 616.943,204.978 L622.813,236.634 C622.965,237.454 623.769,237.984 624.584,237.801 L699.614,220.868 C701.178,220.516 701.131,218.272 699.554,217.986 Z M263.564,223.788 L199.262,187.785 C198.155,187.166 196.835,188.143 197.105,189.382 L210.89,252.697 C211.098,253.653 212.165,254.143 213.027,253.677 L263.545,226.366 C264.565,225.815 264.577,224.355 263.564,223.788 Z M310.353,500.087 L356.234,504.555 C357.3,504.659 358.116,503.625 357.768,502.613 L340.796,453.248 C340.396,452.086 338.833,451.896 338.167,452.929 L309.259,497.826 C308.663,498.752 309.257,499.98 310.353,500.087 Z M339.773,437.229 L357.154,391.25 C357.566,390.16 356.608,389.047 355.469,389.292 L288.703,403.646 C287.418,403.922 287.112,405.615 288.219,406.323 L337.603,437.948 C338.391,438.452 339.443,438.104 339.773,437.229 Z M263.186,461.844 L330.129,443.266 C331.355,442.926 331.601,441.296 330.529,440.609 L280.604,408.639 C279.798,408.123 278.722,408.501 278.416,409.408 L261.397,459.957 C261.02,461.075 262.048,462.16 263.186,461.844 Z M421.202,450.931 L485.672,439.598 C486.86,439.39 487.306,437.92 486.435,437.086 L456.728,408.663 C456.122,408.083 455.154,408.126 454.603,408.758 L419.839,448.513 C418.925,449.558 419.834,451.171 421.202,450.931 Z M495.938,435.821 L543.187,389.31 C544.243,388.271 543.276,386.5 541.831,386.826 L464.264,404.33 C463.119,404.589 462.723,406.017 463.571,406.829 L493.889,435.836 C494.463,436.385 495.371,436.379 495.938,435.821 Z M410.811,449.638 L448.033,407.07 C448.777,406.219 448.324,404.882 447.216,404.659 L372.771,389.67 C371.495,389.412 370.538,390.818 371.245,391.911 L408.468,449.468 C408.999,450.289 410.167,450.374 410.811,449.638 Z M256.856,454.466 L272.821,407.048 C273.111,406.186 272.559,405.271 271.661,405.126 L234.359,399.109 C233.23,398.927 232.334,400.046 232.758,401.108 L254.095,454.542 C254.602,455.814 256.419,455.763 256.856,454.466 Z M523.744,518.628 C524.153,519.867 525.852,520.001 526.45,518.841 L563.879,446.216 C564.383,445.237 563.672,444.07 562.571,444.07 L501.173,444.07 C500.171,444.07 499.462,445.051 499.776,446.003 L523.744,518.628 Z M269.932,229.799 L223.232,255.045 C221.966,255.73 222.335,257.638 223.766,257.801 L291.42,265.524 C292.65,265.664 293.493,264.317 292.829,263.273 L271.873,230.304 C271.459,229.652 270.611,229.431 269.932,229.799 Z M180.382,186.152 L120.073,200.549 C119.072,200.788 118.619,201.953 119.196,202.805 L142.284,236.881 C142.847,237.711 144.058,237.747 144.669,236.951 L181.891,188.479 C182.735,187.38 181.73,185.83 180.382,186.152 Z M841.482,225.971 L772.922,210.614 C771.721,210.345 770.74,211.583 771.276,212.691 L791.887,255.295 C792.257,256.061 793.198,256.354 793.938,255.933 L841.888,228.686 C843.058,228.021 842.795,226.265 841.482,225.971 Z M143.917,257.238 L134.655,308.624 C134.512,309.417 135.034,310.177 135.825,310.33 L175.861,318.035 C177.069,318.268 178.012,317.002 177.444,315.91 L146.67,256.819 C146.022,255.575 144.166,255.857 143.917,257.238 Z M188.519,189.792 L149.922,240.053 C149.271,240.902 149.712,242.138 150.753,242.383 L202.956,254.613 C204.009,254.86 204.959,253.925 204.729,252.867 L191.123,190.375 C190.857,189.152 189.281,188.799 188.519,189.792 Z M156.972,387.263 C157.392,388.634 159.323,388.656 159.775,387.297 L179.936,326.681 C180.217,325.838 179.691,324.94 178.818,324.772 L137.657,316.85 C136.568,316.64 135.647,317.665 135.973,318.726 L156.972,387.263 Z M130.056,481.816 L194.349,517.702 C195.456,518.32 196.773,517.343 196.504,516.105 L182.743,452.911 C182.535,451.954 181.468,451.464 180.606,451.929 L130.073,479.237 C129.052,479.788 129.042,481.25 130.056,481.816 Z M191.855,445.413 L247.823,461.57 C248.999,461.909 250.051,460.747 249.597,459.61 L227.004,403.029 C226.59,401.991 225.215,401.776 224.503,402.638 L191.129,443.063 C190.455,443.88 190.838,445.12 191.855,445.413 Z M216.444,398.936 L165.492,403.945 C164.424,404.05 163.824,405.226 164.366,406.152 L183.79,439.334 C184.306,440.217 185.543,440.316 186.194,439.528 L217.723,401.338 C218.559,400.325 217.751,398.808 216.444,398.936 Z M115.201,438.852 L176.166,442.845 C177.344,442.923 178.129,441.652 177.533,440.634 L158.064,407.374 C157.629,406.631 156.65,406.419 155.946,406.915 L114.449,436.181 C113.315,436.981 113.816,438.761 115.201,438.852 Z M399.455,451.252 C400.724,451.486 401.658,450.09 400.957,449.006 L365.202,393.719 C364.546,392.705 363.017,392.869 362.59,393.998 L345.381,439.522 C345.057,440.38 345.588,441.323 346.491,441.489 L399.455,451.252 Z M233.031,392.761 L271,398.884 C272.054,399.054 272.933,398.081 272.655,397.05 L256.404,336.602 C256.037,335.236 254.142,335.124 253.617,336.437 L231.899,390.762 C231.549,391.637 232.101,392.611 233.031,392.761 Z M227.587,385.233 L250.542,327.814 C250.929,326.847 250.217,325.796 249.176,325.796 L192.312,325.796 C191.173,325.796 190.466,327.035 191.045,328.016 L224.954,385.435 C225.575,386.487 227.134,386.367 227.587,385.233 Z M461.165,398.821 L545.449,379.801 C546.721,379.514 547.019,377.838 545.925,377.13 L471.654,329.101 C470.756,328.521 469.558,329.062 469.4,330.12 L459.386,397.168 C459.233,398.191 460.156,399.049 461.165,398.821 Z M364.19,379.326 L394.884,351.324 C395.8,350.488 395.335,348.964 394.108,348.782 L329.078,339.16 C327.709,338.958 326.843,340.586 327.776,341.608 L362.111,379.231 C362.659,379.831 363.59,379.873 364.19,379.326 Z M453.817,393.459 L463.301,329.954 C463.468,328.839 462.371,327.959 461.318,328.363 L411.188,347.627 C410.219,348 409.93,349.232 410.632,349.996 L451.278,394.238 C452.115,395.148 453.634,394.683 453.817,393.459 Z M826.966,328.797 L798.912,377.388 C798.275,378.49 799.243,379.825 800.488,379.564 L871.145,364.746 C872.366,364.489 872.734,362.927 871.757,362.153 L829.154,328.379 C828.451,327.821 827.415,328.019 826.966,328.797 Z M286.659,397.891 L354.613,383.28 C355.723,383.042 356.156,381.689 355.39,380.85 L318.93,340.9 C318.259,340.164 317.066,340.294 316.569,341.156 L285.075,395.717 C284.437,396.822 285.412,398.159 286.659,397.891 Z M184.184,333.1 L163.264,395.998 C162.928,397.009 163.744,398.031 164.804,397.926 L219.683,392.532 C220.753,392.427 221.353,391.246 220.806,390.32 L186.847,332.817 C186.205,331.73 184.582,331.903 184.184,333.1 Z M280.187,392.07 L311.227,338.297 C311.733,337.419 311.222,336.303 310.225,336.115 L262.298,327.072 C261.232,326.871 260.323,327.852 260.604,328.9 L277.492,391.716 C277.832,392.982 279.532,393.205 280.187,392.07 Z M849.528,231.31 L803.469,257.483 C802.275,258.161 802.578,259.96 803.928,260.21 L856.743,269.992 C857.76,270.181 858.648,269.29 858.457,268.274 L851.702,232.318 C851.515,231.325 850.407,230.811 849.528,231.31 Z M914.563,77.542 L962.46,73.096 C963.528,72.997 964.135,71.824 963.599,70.895 L936.091,23.251 C935.475,22.183 933.896,22.302 933.447,23.45 L913.057,75.541 C912.657,76.56 913.472,77.643 914.563,77.542 Z M866.229,263.116 L904.287,204.697 C905.12,203.419 903.697,201.874 902.354,202.6 L857.842,226.665 C857.279,226.969 856.977,227.602 857.095,228.231 L863.551,262.585 C863.796,263.888 865.505,264.228 866.229,263.116 Z M968.885,67.94 C969.418,68.863 970.726,68.93 971.351,68.067 L998.755,30.25 C999.393,29.37 998.889,28.126 997.818,27.938 L943.011,18.29 C941.78,18.073 940.857,19.392 941.482,20.474 L968.885,67.94 Z M319.468,321.051 L345.475,261.024 C345.977,259.865 344.882,258.655 343.679,259.037 L305.408,271.199 C304.665,271.436 304.235,272.212 304.428,272.967 L316.692,320.832 C317.04,322.19 318.91,322.338 319.468,321.051 Z M191.012,319.74 L246.942,319.74 C248.147,319.74 248.841,318.37 248.129,317.399 L211.607,267.587 C210.921,266.65 209.471,266.841 209.05,267.923 L189.641,317.734 C189.265,318.699 189.976,319.74 191.012,319.74 Z M291.778,271.66 L219.083,263.363 C217.808,263.217 216.971,264.659 217.729,265.695 L254.873,316.354 C255.437,317.124 256.573,317.161 257.186,316.43 L292.738,274.068 C293.492,273.17 292.943,271.794 291.778,271.66 Z M203.464,260.953 L152.128,248.925 C150.903,248.638 149.906,249.921 150.488,251.037 L182.533,312.571 C183.117,313.693 184.75,313.604 185.209,312.426 L204.499,262.92 C204.825,262.085 204.336,261.157 203.464,260.953 Z M297.128,278.258 L263.082,318.826 C262.359,319.688 262.831,321.009 263.936,321.218 L310.634,330.029 C311.693,330.229 312.6,329.261 312.332,328.218 L299.681,278.839 C299.384,277.678 297.898,277.341 297.128,278.258 Z M372.208,383.378 L442.459,397.523 C443.856,397.804 444.797,396.134 443.833,395.085 L404.73,352.524 C404.182,351.927 403.254,351.886 402.655,352.432 L371.507,380.849 C370.616,381.661 371.026,383.14 372.208,383.378 Z M623.552,442.544 C623.885,443.869 625.688,444.064 626.296,442.841 L656.043,383.052 C656.51,382.113 655.874,381.001 654.828,380.928 L609.25,377.765 C608.252,377.696 607.477,378.622 607.721,379.592 L623.552,442.544 Z M710.057,380.5 C711.328,380.635 712.156,379.198 711.4,378.167 L685.926,343.392 C685.283,342.513 683.942,342.613 683.436,343.577 L667.51,373.921 C667.027,374.841 667.623,375.957 668.656,376.068 L710.057,380.5 Z M662.594,370.256 L679.007,338.986 C679.424,338.191 679.039,337.211 678.192,336.914 L629.507,319.791 C628.174,319.322 627.011,320.82 627.795,321.995 L660.067,370.388 C660.687,371.318 662.075,371.245 662.594,370.256 Z M633.912,447.006 L679.105,426.219 C679.847,425.879 680.169,425 679.824,424.26 L662.956,388.114 C662.435,386.998 660.855,386.978 660.306,388.081 L631.98,445.013 C631.361,446.257 632.65,447.586 633.912,447.006 Z M855.041,275.836 L800.299,265.697 C799.063,265.467 798.128,266.791 798.756,267.879 L826.127,315.287 C826.658,316.207 827.959,316.278 828.587,315.423 L855.959,278.154 C856.601,277.28 856.108,276.034 855.041,275.836 Z M686.692,419.694 L712.157,389.116 C712.909,388.213 712.352,386.836 711.183,386.711 L669.359,382.234 C668.22,382.112 667.385,383.281 667.869,384.319 L684.228,419.375 C684.684,420.352 686.002,420.523 686.692,419.694 Z M720.69,377.106 L748.076,329.673 C748.703,328.587 747.771,327.264 746.538,327.489 L691.72,337.475 C690.651,337.67 690.154,338.916 690.796,339.792 L718.229,377.24 C718.857,378.097 720.159,378.027 720.69,377.106 Z M763.352,319.74 L819.156,319.74 C820.289,319.74 820.997,318.514 820.431,317.533 L792.529,269.205 C791.962,268.224 790.546,268.224 789.98,269.205 L762.078,317.533 C761.512,318.514 762.22,319.74 763.352,319.74 Z M561.246,376.734 L594.352,372.424 C595.53,372.27 596.05,370.856 595.252,369.976 L562.146,333.445 C561.242,332.448 559.584,333.087 559.584,334.433 L559.584,375.275 C559.584,376.163 560.365,376.849 561.246,376.734 Z M492.628,266.647 L449.574,244.13 C448.42,243.527 447.108,244.61 447.483,245.858 L467.218,311.523 C467.595,312.777 469.299,312.951 469.922,311.8 L493.241,268.651 C493.631,267.929 493.355,267.028 492.628,266.647 Z M482.68,325.796 C481.213,325.796 480.649,327.707 481.881,328.503 L551.258,373.366 C552.237,373.999 553.528,373.296 553.528,372.131 L553.528,327.267 C553.528,326.455 552.87,325.796 552.057,325.796 L482.68,325.796 Z M505.935,438.014 L564.35,438.014 C565.29,438.014 565.989,437.144 565.786,436.225 L555.353,388.994 C555.104,387.864 553.709,387.451 552.885,388.262 L504.903,435.494 C503.965,436.418 504.619,438.014 505.935,438.014 Z M553.856,261.172 C553.861,260.255 553.035,259.556 552.131,259.714 L507.291,267.542 C506.107,267.749 505.657,269.212 506.52,270.049 L551.089,313.251 C552.019,314.153 553.578,313.498 553.584,312.202 L553.856,261.172 Z M608.76,371.661 L652.827,374.719 C654.046,374.804 654.831,373.452 654.153,372.435 L621.032,322.77 C620.318,321.699 618.67,321.997 618.375,323.25 L607.429,369.856 C607.222,370.739 607.855,371.598 608.76,371.661 Z M497.913,272.744 L473.687,317.569 C473.158,318.55 473.868,319.74 474.982,319.74 L545.45,319.74 C546.771,319.74 547.423,318.132 546.474,317.212 L500.231,272.387 C499.531,271.708 498.377,271.886 497.913,272.744 Z M615.172,302.565 L617.424,247.492 C617.464,246.528 616.581,245.787 615.638,245.994 L565.944,256.921 C564.785,257.175 564.389,258.626 565.258,259.435 L612.699,303.582 C613.62,304.438 615.121,303.821 615.172,302.565 Z M602.283,365.28 L613.303,318.36 C613.543,317.336 612.663,316.398 611.626,316.572 L565.169,324.389 C564.022,324.583 563.542,325.967 564.323,326.829 L599.761,365.931 C600.557,366.81 602.012,366.434 602.283,365.28 Z M559.886,266.081 L559.613,317.435 C559.608,318.349 560.428,319.046 561.329,318.894 L608.296,310.991 C609.499,310.788 609.948,309.294 609.055,308.463 L562.36,265.011 C561.422,264.138 559.893,264.799 559.886,266.081 Z M765.494,468.465 L770.622,519.71 C770.715,520.638 771.637,521.247 772.527,520.968 L799.454,512.518 C800.422,512.215 800.799,511.045 800.191,510.232 L768.136,467.436 C767.243,466.243 765.346,466.982 765.494,468.465 Z M247.941,467.907 L190.839,451.423 C189.769,451.114 188.756,452.061 188.994,453.15 L202.716,516.169 C202.969,517.329 204.42,517.728 205.23,516.859 L248.61,470.324 C249.358,469.522 248.996,468.212 247.941,467.907 Z M187.364,582.002 L275.975,580.123 C277.424,580.092 277.96,578.204 276.742,577.416 L204.77,530.875 C203.968,530.356 202.891,530.729 202.58,531.633 L185.941,580.052 C185.609,581.02 186.341,582.023 187.364,582.002 Z M124.768,552.117 L168.771,575.307 C170.073,575.993 171.464,574.556 170.736,573.278 L127.093,496.552 C126.348,495.243 124.352,495.764 124.342,497.269 L123.982,550.805 C123.979,551.355 124.282,551.861 124.768,552.117 Z M181.357,574.756 L197.499,527.783 C197.73,527.11 197.447,526.367 196.825,526.02 L134.023,490.967 C132.724,490.24 131.291,491.684 132.027,492.979 L178.687,575.006 C179.313,576.107 180.946,575.954 181.357,574.756 Z M348.843,562.715 L394.632,574.241 C395.893,574.559 396.915,573.205 396.266,572.079 L365.199,518.273 C364.569,517.182 362.949,517.335 362.535,518.525 L347.812,560.803 C347.528,561.619 348.005,562.504 348.843,562.715 Z M173.874,132.743 L124.349,190.565 C123.421,191.648 124.421,193.284 125.808,192.953 L186.828,178.387 C187.633,178.195 188.121,177.377 187.908,176.578 L176.414,133.322 C176.109,132.177 174.645,131.843 173.874,132.743 Z M302.798,496.674 L331.705,451.781 C332.436,450.644 331.376,449.205 330.074,449.566 L265.418,467.509 C264.243,467.836 263.952,469.368 264.926,470.102 L300.675,497.052 C301.358,497.567 302.335,497.393 302.798,496.674 Z M296.742,577.523 L336.906,563.49 C337.809,563.175 338.176,562.095 337.652,561.295 L306.657,513.931 C305.917,512.8 304.17,513.182 303.971,514.52 L294.801,575.917 C294.638,577.012 295.697,577.888 296.742,577.523 Z M215.145,519.045 L292.583,501.57 C293.806,501.294 294.145,499.714 293.145,498.959 L257.234,471.888 C256.632,471.434 255.786,471.509 255.272,472.059 L213.745,516.607 C212.757,517.666 213.732,519.364 215.145,519.045 Z M86.992,255.295 L136.349,242.417 C137.332,242.16 137.765,241.009 137.195,240.168 L114.561,206.761 C113.952,205.862 112.612,205.91 112.069,206.851 L85.347,253.135 C84.693,254.266 85.728,255.624 86.992,255.295 Z M164.072,130.762 L98.167,147.718 C97.314,147.937 96.844,148.852 97.162,149.674 L114.035,193.297 L114.05,193.279 L165.557,133.144 C166.492,132.051 165.466,130.404 164.072,130.762 Z M85.229,264.328 L126.929,304.453 C127.776,305.267 129.189,304.81 129.397,303.654 L139.044,250.133 C139.235,249.075 138.265,248.176 137.225,248.447 L85.878,261.844 C84.766,262.134 84.401,263.531 85.229,264.328 Z M534.193,522.652 L575.441,506.672 C576.082,506.424 576.466,505.764 576.365,505.085 L569.002,455.316 C568.793,453.902 566.893,453.586 566.238,454.857 L532.353,520.606 C531.733,521.81 532.93,523.141 534.193,522.652 Z M117.982,542.448 L118.344,488.666 C118.352,487.503 117.071,486.791 116.088,487.411 L83.633,507.863 C82.844,508.361 82.71,509.457 83.357,510.129 L115.451,543.459 C116.366,544.409 117.974,543.768 117.982,542.448 Z M86.973,498.6 L116.405,480.052 C117.04,479.653 117.272,478.84 116.945,478.165 L104.177,451.843 C103.611,450.677 101.924,450.759 101.474,451.973 L84.809,496.843 C84.319,498.162 85.782,499.35 86.973,498.6 Z M80.423,383.554 L102.865,434.78 C103.239,435.632 104.3,435.928 105.061,435.391 L148.95,404.439 C149.95,403.733 149.702,402.187 148.532,401.829 L82.201,381.557 C80.998,381.189 79.918,382.403 80.423,383.554 Z M124.123,475.568 L169.245,451.185 C170.544,450.483 170.115,448.518 168.642,448.422 L109.823,444.569 C108.697,444.495 107.91,445.664 108.403,446.679 L122.1,474.916 C122.465,475.67 123.386,475.967 124.123,475.568 Z M343.483,554.82 L358.166,512.656 C358.479,511.755 357.868,510.8 356.919,510.707 L311.767,506.31 C310.538,506.19 309.717,507.547 310.393,508.58 L340.863,555.141 C341.531,556.163 343.082,555.972 343.483,554.82 Z M784.319,387.623 L727.825,387.623 C726.68,387.623 725.974,388.873 726.565,389.853 L759.017,443.736 C759.63,444.755 761.136,444.662 761.621,443.576 L785.663,389.694 C786.098,388.72 785.385,387.623 784.319,387.623 Z M710.344,548.77 L758.751,526.506 C759.851,526 759.904,524.457 758.841,523.878 L686.533,484.434 C685.33,483.777 683.961,484.978 684.456,486.257 L708.357,547.965 C708.663,548.756 709.573,549.125 710.344,548.77 Z M804.596,501.753 L813.945,411.323 C814.084,409.974 812.479,409.171 811.483,410.091 L765.91,452.157 C765.355,452.669 765.278,453.517 765.73,454.12 L801.955,502.484 C802.758,503.556 804.458,503.085 804.596,501.753 Z M718.262,554.541 L756.721,569.464 C757.6,569.805 758.569,569.242 758.708,568.309 L763.936,533.294 C764.109,532.137 762.929,531.251 761.866,531.739 L718.179,551.833 C716.998,552.376 717.05,554.071 718.262,554.541 Z M841.599,559.817 L894.66,574.123 C895.908,574.46 896.952,573.138 896.337,572.002 L860.542,505.888 C859.929,504.756 858.259,504.902 857.852,506.124 L840.586,557.931 C840.318,558.735 840.782,559.597 841.599,559.817 Z M836.366,551.44 L852.487,503.066 C852.874,501.905 851.758,500.807 850.604,501.213 L812.717,514.507 C811.829,514.818 811.457,515.871 811.954,516.671 L833.72,551.75 C834.377,552.81 835.972,552.623 836.366,551.44 Z M400.771,457.654 L347.67,447.865 C346.562,447.661 345.645,448.726 346.012,449.791 L363.266,499.976 C363.632,501.041 365.01,501.317 365.758,500.474 L401.605,460.077 C402.366,459.22 401.898,457.861 400.771,457.654 Z M795.609,522.869 C796.47,521.727 795.359,520.151 793.993,520.58 L771.754,527.558 C771.216,527.727 770.822,528.188 770.739,528.745 L766.548,556.816 C766.322,558.325 768.259,559.137 769.178,557.919 L795.609,522.869 Z M771.481,569.445 L829.102,559.636 C830.132,559.461 830.656,558.298 830.105,557.41 L807.327,520.701 C806.781,519.821 805.52,519.765 804.899,520.594 L770.056,567.113 C769.259,568.177 770.17,569.668 771.481,569.445 Z M442.375,507.066 L517.085,524.937 C518.206,525.205 519.185,524.139 518.824,523.045 L494.501,449.342 C494.147,448.271 492.768,447.98 492.011,448.818 L441.625,504.649 C440.877,505.478 441.289,506.806 442.375,507.066 Z M470.09,564.185 C470.53,564.947 471.537,565.155 472.243,564.63 L514.692,533.076 C515.694,532.331 515.371,530.755 514.157,530.464 L443.769,513.627 C442.512,513.326 441.506,514.675 442.152,515.794 L470.09,564.185 Z M436.536,501.249 L483.939,448.724 C484.877,447.685 483.971,446.047 482.592,446.289 L414.268,458.299 L413.63,458.411 L434.119,500.902 C434.572,501.843 435.836,502.025 436.536,501.249 Z M372.915,505.22 L427.134,505.22 C428.218,505.22 428.93,504.086 428.459,503.11 L409.371,463.522 C408.915,462.576 407.642,462.399 406.945,463.184 L371.815,502.772 C370.973,503.721 371.646,505.22 372.915,505.22 Z M488.079,563.874 L569.757,549.75 C571.284,549.486 571.418,547.346 569.936,546.893 L525.518,533.321 C525.072,533.184 524.586,533.268 524.211,533.547 L486.95,561.243 C485.707,562.167 486.552,564.138 488.079,563.874 Z M632.167,544.4 C632.872,544.939 633.891,544.736 634.335,543.968 L668.643,484.629 C669.321,483.458 668.19,482.07 666.906,482.496 L588.906,508.393 C587.785,508.765 587.538,510.24 588.476,510.958 L632.167,544.4 Z M641.907,547.256 L700.49,550.154 C701.554,550.207 702.32,549.146 701.935,548.153 L677.762,485.74 C677.315,484.588 675.734,484.466 675.116,485.535 L640.706,545.05 C640.154,546.003 640.807,547.202 641.907,547.256 Z M617.825,456.71 L575.772,445.697 C574.751,445.429 573.789,446.292 573.943,447.335 L581.398,497.724 C581.585,498.986 583.18,499.429 583.99,498.444 L618.239,456.819 L617.825,456.71 Z M584.29,542.655 L578.046,513.979 C577.854,513.097 576.919,512.594 576.077,512.921 L537.45,527.885 C536.147,528.39 536.216,530.256 537.552,530.664 L582.422,544.376 C583.497,544.704 584.529,543.754 584.29,542.655 Z M81.369,374.969 L150.99,396.247 C152.118,396.592 153.173,395.536 152.827,394.409 L130.316,320.938 C129.981,319.845 128.582,319.534 127.816,320.383 L80.707,372.576 C79.984,373.376 80.338,374.655 81.369,374.969 Z M812.118,508.298 L852.751,494.041 C853.551,493.76 853.949,492.864 853.621,492.083 L822.203,417.199 C821.614,415.794 819.539,416.101 819.383,417.617 L810.167,506.759 C810.056,507.832 811.1,508.655 812.118,508.298 Z M907.874,190.164 L843.571,154.161 C842.465,153.541 841.145,154.519 841.415,155.758 L855.199,219.072 C855.408,220.029 856.475,220.519 857.337,220.053 L907.855,192.742 C908.875,192.191 908.886,190.73 907.874,190.164 Z M818.928,395.941 L852.505,377.788 C853.998,376.981 853.164,374.705 851.504,375.053 L803.569,385.106 C802.241,385.385 801.966,387.161 803.148,387.828 L817.506,395.928 C817.946,396.176 818.483,396.181 818.928,395.941 Z M774.893,435.623 L813.073,400.381 L812.986,400.332 L794.072,389.661 C793.316,389.235 792.358,389.551 792.005,390.343 L772.551,433.942 C771.899,435.403 773.718,436.708 774.893,435.623 Z M893.149,435.548 L879.463,372.237 C879.256,371.279 878.188,370.788 877.326,371.254 L826.81,398.564 C825.79,399.115 825.779,400.575 826.79,401.142 L890.992,437.142 C892.098,437.762 893.417,436.787 893.149,435.548 Z M916.918,276.349 L914.037,205.72 C913.978,204.288 912.116,203.776 911.333,204.976 L869.096,269.812 C868.503,270.721 869.065,271.937 870.141,272.075 L915.26,277.868 C916.164,277.984 916.955,277.259 916.918,276.349 Z M917.38,325.886 L839.886,325.809 C838.491,325.808 837.878,327.567 838.971,328.433 L880.071,361.014 C880.632,361.459 881.432,361.435 881.965,360.959 L918.359,328.455 C919.366,327.555 918.731,325.887 917.38,325.886 Z M864.482,279.263 C863.827,278.783 862.907,278.925 862.427,279.579 L834.645,317.406 C833.932,318.378 834.624,319.748 835.829,319.749 L915.377,319.828 C916.801,319.829 917.397,318.01 916.248,317.17 L864.482,279.263 Z M892.143,444.732 L828.112,408.826 C826.892,408.142 825.494,409.388 826.036,410.679 L858.1,487.105 C858.534,488.138 859.918,488.327 860.612,487.447 L892.579,446.926 C893.139,446.217 892.932,445.174 892.143,444.732 Z M593.734,500.409 L664.37,476.958 C665.679,476.523 665.725,474.688 664.439,474.189 L625.523,459.089 C624.932,458.86 624.259,459.036 623.855,459.526 L592.134,498.078 C591.197,499.217 592.333,500.874 593.734,500.409 Z M792.529,376.331 L820.431,328.003 C820.997,327.022 820.289,325.796 819.156,325.796 L763.352,325.796 C762.22,325.796 761.512,327.022 762.078,328.003 L789.98,376.331 C790.546,377.312 791.962,377.312 792.529,376.331 Z M181.041,127.156 L192.058,168.61 C192.399,169.894 194.132,170.104 194.77,168.939 L228.844,106.746 C229.525,105.503 228.227,104.11 226.938,104.702 L181.849,125.441 C181.198,125.74 180.857,126.464 181.041,127.156 Z M576.081,439.517 L616.993,450.232 C618.075,450.516 619.065,449.535 618.792,448.45 L603.297,386.834 C602.964,385.509 601.164,385.314 600.554,386.535 L575.137,437.436 C574.72,438.272 575.177,439.28 576.081,439.517 Z M595.279,378.41 L561.82,382.767 C560.963,382.879 560.387,383.7 560.573,384.544 L570.167,427.979 C570.466,429.333 572.301,429.559 572.92,428.319 L596.786,380.527 C597.312,379.472 596.447,378.258 595.279,378.41 Z M727.657,381.567 L783.461,381.567 C784.594,381.567 785.301,380.341 784.735,379.36 L756.833,331.031 C756.267,330.051 754.851,330.051 754.284,331.031 L726.382,379.36 C725.816,380.341 726.524,381.567 727.657,381.567 Z M763.711,511.463 L758.148,455.882 C758.091,455.305 757.701,454.817 757.152,454.633 L698.851,435.09 C697.437,434.616 696.296,436.303 697.262,437.438 L761.125,512.562 C762.06,513.662 763.854,512.899 763.711,511.463 Z M720.533,391.577 C720.01,390.71 718.789,390.616 718.142,391.394 L691.018,423.963 C690.356,424.758 690.7,425.97 691.682,426.3 L750.243,445.929 C751.54,446.364 752.677,444.947 751.971,443.775 L720.533,391.577 Z M681.404,474.738 L748.318,511.239 C749.75,512.02 751.2,510.237 750.143,508.994 L688.591,436.588 C687.772,435.625 686.201,436.074 686.014,437.324 L680.653,473.229 C680.562,473.84 680.862,474.442 681.404,474.738 Z M675.03,469.877 L680.258,434.862 C680.431,433.705 679.25,432.819 678.188,433.308 L634.502,453.401 C633.321,453.944 633.373,455.639 634.584,456.109 L673.042,471.031 C673.922,471.373 674.891,470.81 675.03,469.877 Z M412.667,167.438 L360.583,245.971 C359.864,247.054 360.801,248.469 362.079,248.231 L435.867,234.466 C436.746,234.302 437.276,233.399 436.992,232.552 L415.289,167.784 C414.899,166.622 413.344,166.417 412.667,167.438 Z M404.355,157.024 L366.926,142.145 C366.06,141.8 365.095,142.339 364.934,143.258 L358.803,178.171 C358.598,179.34 359.789,180.259 360.867,179.762 L404.426,159.728 C405.602,159.187 405.557,157.502 404.355,157.024 Z M422.69,170.811 L441.68,227.48 C442.056,228.6 443.53,228.843 444.246,227.905 L464.836,200.888 C465.331,200.238 465.202,199.308 464.548,198.818 L424.968,169.166 C423.812,168.301 422.232,169.443 422.69,170.811 Z M500.164,137.765 L447.6,109.619 C446.436,108.996 445.105,110.1 445.501,111.359 L469.807,188.451 C470.192,189.673 471.845,189.853 472.485,188.745 L500.744,139.798 C501.16,139.078 500.897,138.157 500.164,137.765 Z M235.283,107.595 L196.818,177.805 C196.43,178.513 196.685,179.402 197.39,179.796 L264.391,217.31 C265.525,217.945 266.865,216.906 266.532,215.65 L237.996,107.926 C237.656,106.641 235.922,106.43 235.283,107.595 Z M292.942,144.895 L277.112,216.816 C276.849,218.011 278.075,218.987 279.181,218.461 L346.439,186.5 C347.429,186.029 347.576,184.681 346.71,184.009 L295.282,144.05 C294.428,143.386 293.175,143.839 292.942,144.895 Z M246.662,106.695 C245.549,105.84 243.985,106.882 244.344,108.239 L270.353,206.421 C270.748,207.913 272.88,207.868 273.212,206.361 L287.943,139.433 C288.066,138.875 287.855,138.297 287.402,137.949 L246.662,106.695 Z M357.549,140.317 L304.64,140.317 C303.239,140.317 302.631,142.09 303.737,142.95 L350.294,179.124 C351.169,179.804 352.454,179.309 352.646,178.217 L358.998,142.043 C359.156,141.142 358.463,140.317 357.549,140.317 Z M504.415,145.552 L476.513,193.88 C475.947,194.861 476.655,196.087 477.788,196.087 L533.591,196.087 C534.724,196.087 535.432,194.861 534.866,193.88 L506.964,145.552 C506.397,144.571 504.981,144.571 504.415,145.552 Z M713.311,151.908 L723.934,213.384 C724.085,214.26 724.974,214.803 725.822,214.538 L757.247,204.716 C758.241,204.405 758.607,203.189 757.95,202.382 L715.902,150.728 C714.946,149.554 713.053,150.416 713.311,151.908 Z M775.107,155.113 L768.107,201.93 C767.993,202.694 768.488,203.415 769.241,203.584 L838.981,219.205 C840.421,219.527 841.387,217.766 840.341,216.726 L777.601,154.288 C776.746,153.437 775.286,153.92 775.107,155.113 Z M631.795,242.382 C630.523,242.669 630.226,244.344 631.32,245.052 L705.59,293.08 C706.488,293.661 707.686,293.12 707.844,292.062 L717.858,225.014 C718.011,223.99 717.088,223.134 716.079,223.361 L631.795,242.382 Z M832.713,149.62 L784.483,149.028 C783.162,149.011 782.49,150.61 783.427,151.542 L844.832,212.652 C845.872,213.686 847.62,212.729 847.308,211.296 L834.132,150.778 C833.987,150.109 833.398,149.628 832.713,149.62 Z M768.546,148.162 L718.534,140.302 C717.201,140.093 716.312,141.638 717.164,142.685 L760.409,195.809 C761.216,196.801 762.816,196.362 763.005,195.097 L769.773,149.833 C769.893,149.034 769.345,148.288 768.546,148.162 Z M650.363,143.926 C649.694,143.181 648.494,143.306 647.994,144.173 L618.593,195.096 C618.084,195.978 618.602,197.097 619.604,197.28 L709.421,213.626 C710.801,213.877 711.716,212.238 710.779,211.195 L650.363,143.926 Z M577.347,161.753 L550.04,193.659 C549.224,194.613 549.902,196.087 551.158,196.087 L603.521,196.087 C604.749,196.087 605.437,194.672 604.679,193.707 L579.622,161.801 C579.049,161.07 577.951,161.047 577.347,161.753 Z M570.831,156.781 L515.259,142.815 C513.998,142.499 512.976,143.852 513.625,144.978 L540.828,192.093 C541.335,192.972 542.56,193.086 543.22,192.314 L571.591,159.165 C572.301,158.335 571.891,157.047 570.831,156.781 Z M638.81,142.953 L586.014,156.803 C584.99,157.072 584.576,158.303 585.23,159.136 L611.049,192.012 C611.692,192.831 612.959,192.741 613.48,191.839 L640.458,145.113 C641.112,143.98 640.075,142.622 638.81,142.953 L638.81,142.953 Z" id="Fill-1"></path>
        </g>
    </g>
</svg>
